# MagicaVoxel @ Ephtracy

# group
o 

# material
mtllib ylica goroda-6.mtl
usemtl palette

# normals
vn 0 0 -1
vn 0 0 1
vn -1 0 0
vn 1 0 0
vn 0 -1 0
vn 0 1 0

# texcoords
vt 0.970703 0.5
vt 0.974609 0.5

# verts
v 2.3 3.6 18.4
v 6.3 3.6 18.4
v 2.3 4 18.4
v 6.3 4 18.4
v 2.3 3.6 22.4
v 6.3 3.6 22.4
v 2.3 4 22.4
v 6.3 4 22.4
v 2.3 3.6 18.4
v 2.3 4 18.4
v 2.3 3.6 18.6
v 2.3 4 18.6
v 2.3 3.6 22.2
v 2.3 4 22.2
v 2.3 3.6 22.4
v 2.3 4 22.4
v 6.3 3.6 18.4
v 6.3 4 18.4
v 6.3 3.6 18.5
v 6.3 3.7 18.5
v 6.3 3.7 18.6
v 6.3 4 18.6
v 6.3 3.7 22.2
v 6.3 4 22.2
v 6.3 3.6 22.3
v 6.3 3.7 22.3
v 6.3 3.6 22.4
v 6.3 4 22.4
v 2.3 3.6 18.4
v 2.3 3.6 18.6
v 2.3 3.6 22.2
v 2.3 3.6 22.4
v 2.4 3.6 18.5
v 2.4 3.6 18.6
v 2.4 3.6 22.2
v 2.4 3.6 22.3
v 6.3 3.6 18.4
v 6.3 3.6 18.5
v 6.3 3.6 22.3
v 6.3 3.6 22.4
v 2.3 4 18.4
v 2.3 4 18.6
v 2.3 4 22.2
v 2.3 4 22.4
v 6.3 4 18.4
v 6.3 4 18.6
v 6.3 4 22.2
v 6.3 4 22.4

# faces
f 3/2/1 2/2/1 1/2/1
f 4/2/1 2/2/1 3/2/1
f 5/2/2 6/2/2 7/2/2
f 7/2/2 6/2/2 8/2/2
f 11/2/3 10/2/3 9/2/3
f 12/2/3 10/2/3 11/2/3
f 13/1/3 12/1/3 11/1/3
f 14/1/3 12/1/3 13/1/3
f 15/2/3 14/2/3 13/2/3
f 16/2/3 14/2/3 15/2/3
f 17/2/4 18/2/4 19/2/4
f 19/2/4 18/2/4 20/2/4
f 19/1/4 20/1/4 21/1/4
f 20/2/4 18/2/4 21/2/4
f 21/2/4 18/2/4 22/2/4
f 19/1/4 21/1/4 23/1/4
f 21/1/4 22/1/4 23/1/4
f 23/1/4 22/1/4 24/1/4
f 19/1/4 23/1/4 25/1/4
f 23/2/4 24/2/4 26/2/4
f 25/1/4 23/1/4 26/1/4
f 25/2/4 26/2/4 27/2/4
f 26/2/4 24/2/4 28/2/4
f 27/2/4 26/2/4 28/2/4
f 33/2/5 30/2/5 29/2/5
f 34/1/5 31/1/5 30/1/5
f 34/2/5 30/2/5 33/2/5
f 35/2/5 32/2/5 31/2/5
f 35/1/5 31/1/5 34/1/5
f 36/2/5 32/2/5 35/2/5
f 37/2/5 33/2/5 29/2/5
f 38/1/5 34/1/5 33/1/5
f 38/2/5 33/2/5 37/2/5
f 38/1/5 35/1/5 34/1/5
f 38/1/5 36/1/5 35/1/5
f 39/2/5 32/2/5 36/2/5
f 39/1/5 36/1/5 38/1/5
f 40/2/5 32/2/5 39/2/5
f 41/2/6 42/2/6 45/2/6
f 42/1/6 43/1/6 46/1/6
f 45/2/6 42/2/6 46/2/6
f 43/2/6 44/2/6 47/2/6
f 46/1/6 43/1/6 47/1/6
f 47/2/6 44/2/6 48/2/6
